<svg xmlns="http://www.w3.org/2000/svg" viewBox="0 0 100 100">
  <path d="M40,50 L60,50 L55,70 L45,70 Z" fill="#b22222" stroke="#2b2622" stroke-width="1"/>
  <path d="M45,70 L40,90 M55,70 L60,90 M45,60 L35,80 M55,60 L65,80" stroke="#2b2622" stroke-width="1.5"/>
  <path d="M40,50 Q20,30 30,50 Q25,60 40,50 M60,50 Q80,30 70,50 Q75,60 60,50" fill="none" stroke="#2b2622" stroke-width="1" stroke-dasharray="2 1"/>
  <path d="M40,50 Q40,30 50,20 Q60,30 60,50" fill="#b22222" stroke="#2b2622" stroke-width="1"/>
  <circle cx="45" cy="40" r="1.5" fill="#2b2622"/>
  <circle cx="55" cy="40" r="1.5" fill="#2b2622"/>
  <path d="M40,45 Q50,40 60,45" fill="none" stroke="#2b2622" stroke-width="0.5"/>
</svg>
